# xmcd
# Track frame offsets:
# 150
# 11478
# 30316
# 40980
# 63804
# 79336
# 101562
# 115249
# 131806
# 140220
# 164833
# 176973
#
# Disc length: 2639 seconds
# Revision: 0
# Processed by: cddbd v1.5.2PL0 Copyright (c) Steve Scherf et al.
# Submitted via: VisiTrax 2.10.2.252 - For more info visit www.synapsa.com
#
DISCID=aa0a4d0c
DTITLE=Bluesblocket - Bluesblocket
DYEAR=1900
DGENRE=Blues
TTITLE0=Nackspärr
TTITLE1=Bäste Bosse Holmström
TTITLE2=Rätt å revoltera
TTITLE3=Sovit så dåligt
TTITLE4=Pelle Persson
TTITLE5=Vad är detta för ett liv
TTITLE6=Duggregn
TTITLE7=Du skriver och frågar
TTITLE8=Krokodil
TTITLE9=Söndag morron vid min strand
TTITLE10=Flyger and Flänger
TTITLE11=Nån beter sig som ett barn
EXTD=
EXTT0=
EXTT1=
EXTT2=
EXTT3=
EXTT4=
EXTT5=
EXTT6=
EXTT7=
EXTT8=
EXTT9=
EXTT10=
EXTT11=
PLAYORDER=
